<svg xmlns="http://www.w3.org/2000/svg" viewBox="0 0 72 72">
  <defs>
    <linearGradient id="bg" x1="12%" y1="10%" x2="90%" y2="90%">
      <stop offset="0%" stop-color="#7ee0ff"/>
      <stop offset="42%" stop-color="#2a6fbe"/>
      <stop offset="100%" stop-color="#16396b"/>
    </linearGradient>
    <linearGradient id="route" x1="0%" y1="10%" x2="100%" y2="90%">
      <stop offset="0%" stop-color="#baf7ff"/>
      <stop offset="100%" stop-color="#ffffff"/>
    </linearGradient>
  </defs>
  <rect width="72" height="72" rx="22" fill="url(#bg)"/>
  <g opacity="0.22">
    <path d="M20 54c7-14 12-17 21-27 6-7 11-12 20-18" fill="none" stroke="#fff" stroke-width="9" stroke-linecap="round"/>
  </g>
  <path d="M20 54c7-14 12-17 21-27 6-7 11-12 20-18" fill="none" stroke="url(#route)" stroke-width="5" stroke-linecap="round"/>
  <circle cx="20" cy="54" r="6" fill="#ffffff"/>
  <circle cx="41" cy="28" r="5" fill="#ddfdff"/>
  <path d="M58 16c0 6.3-7.8 13.2-7.8 13.2S42.5 22.3 42.5 16a7.7 7.7 0 1 1 15.5 0Z" fill="#ffffff"/>
  <circle cx="50.2" cy="16" r="2.8" fill="#2a6fbe"/>
</svg>
